<?xml version="1.0" standalone="no"?>
<!DOCTYPE svg PUBLIC "-//W3C//DTD SVG 20010904//EN"
 "http://www.w3.org/TR/2001/REC-SVG-20010904/DTD/svg10.dtd">
<svg version="1.0" xmlns="http://www.w3.org/2000/svg"
 width="300.000000pt" height="300.000000pt" viewBox="0 0 300.000000 300.000000"
 preserveAspectRatio="xMidYMid meet">
<metadata>
Created by potrace 1.10, written by Peter Selinger 2001-2011
</metadata>
<g transform="translate(0.000000,300.000000) scale(0.050000,-0.050000)"
fill="#ffffff" stroke="none">
<path d="M2876 4924 c-36 -4 -50 -16 -43 -34 7 -19 -13 -32 -66 -41 -42 -8
-88 -23 -101 -34 -17 -13 -35 -9 -57 13 -42 42 -47 40 -35 -13 8 -36 5 -39
-12 -15 -18 26 -21 25 -22 -5 0 -19 -9 -35 -20 -35 -11 0 -20 14 -20 31 0 17
-8 26 -18 20 -10 -6 -13 -29 -8 -52 6 -22 3 -39 -6 -37 -38 6 -68 -3 -68 -22
0 -11 14 -20 30 -20 17 0 30 -9 30 -20 0 -11 -13 -20 -30 -20 -19 0 -30 -19
-30 -50 0 -27 -9 -50 -20 -50 -11 0 -20 32 -20 70 0 77 -18 85 -88 39 -43 -27
-48 -27 -59 2 -7 17 -23 25 -35 18 -16 -10 -14 -19 4 -30 15 -9 21 -23 13 -31
-8 -7 -26 -4 -41 9 -21 17 -37 15 -66 -7 -30 -23 -32 -33 -12 -46 21 -14 20
-22 -3 -42 -20 -16 -34 -17 -42 -3 -8 12 -23 21 -35 21 -13 0 -12 -11 4 -29
27 -33 -190 -259 -227 -236 -11 6 -13 1 -5 -12 25 -40 -67 -148 -116 -136 -39
10 -39 9 -7 -15 33 -25 32 -31 -19 -104 -125 -183 -225 -499 -170 -541 29 -21
22 -24 -46 -16 -44 5 -66 3 -50 -4 17 -7 37 -25 46 -40 9 -15 29 -27 44 -27
18 0 24 -12 17 -31 -7 -17 -22 -28 -35 -23 -12 5 -40 1 -62 -7 -32 -13 -27
-16 27 -18 60 -1 66 -6 56 -46 -7 -25 -13 -52 -13 -60 0 -8 -14 -15 -31 -15
-31 0 -31 8 4 -287 8 -73 21 -100 49 -108 39 -10 54 -65 18 -65 -26 0 -25 -46
2 -107 13 -28 35 -45 49 -40 14 6 32 -10 40 -37 8 -25 24 -53 37 -61 16 -10
15 -14 -2 -15 -13 0 -29 9 -36 20 -7 11 -23 20 -36 19 -13 0 -9 -12 11 -27 19
-14 28 -33 20 -42 -8 -9 -4 -10 10 -2 46 26 75 -11 33 -43 -36 -28 -36 -29 7
-16 33 10 49 4 59 -23 7 -20 48 -80 90 -133 62 -79 72 -103 53 -126 -19 -23
-15 -38 20 -73 38 -37 47 -39 63 -15 10 17 24 24 32 16 7 -8 3 -26 -9 -41 -12
-15 -17 -34 -9 -41 17 -18 47 -16 41 2 -12 37 30 17 104 -49 63 -56 76 -78 58
-99 -16 -20 -16 -27 1 -27 12 0 22 9 22 20 0 11 14 20 31 20 22 0 28 -12 20
-37 -15 -47 39 -99 56 -54 9 25 25 22 97 -19 84 -48 196 -67 196 -33 0 9 -23
27 -51 40 -72 33 -61 110 16 119 32 4 55 -3 55 -17 0 -13 -13 -18 -29 -12 -56
21 -56 -31 -1 -75 52 -42 53 -46 21 -78 -20 -21 -24 -34 -10 -34 15 0 19 -17
12 -45 -10 -40 -8 -42 15 -11 33 44 183 12 164 -35 -5 -15 -2 -33 9 -40 10 -6
19 3 19 21 0 30 109 30 330 3 11 -2 26 -21 33 -43 12 -38 13 -37 15 4 2 40 13
44 107 44 58 0 130 5 160 12 43 8 55 3 56 -25 2 -30 4 -29 18 5 16 40 16 40
26 0 10 -38 10 -38 13 3 2 35 22 48 102 69 99 25 123 46 75 65 -14 5 0 11 31
11 31 1 51 -7 45 -17 -7 -11 12 -7 42 9 48 25 57 24 80 -6 22 -29 23 -23 6 36
-24 89 -24 89 8 62 42 -34 203 62 203 121 0 24 11 47 25 52 14 5 25 -2 25 -15
0 -12 -9 -17 -20 -10 -11 7 -15 -1 -8 -17 9 -25 19 -23 60 12 48 42 65 68 29
46 -38 -24 -39 25 -1 59 32 29 45 31 70 10 19 -15 30 -17 30 -4 0 12 -9 27
-20 34 -12 7 -15 22 -9 32 8 13 22 12 39 -2 34 -28 179 118 149 149 -26 26
-24 77 1 61 12 -7 15 -22 8 -33 -8 -12 5 -11 31 2 34 19 39 30 21 51 -35 42
-5 113 45 106 23 -3 45 5 50 19 5 16 -3 21 -23 13 -18 -7 -32 -2 -32 10 0 13
13 28 30 35 16 6 25 18 20 27 -5 9 12 65 38 124 52 117 114 343 120 439 3 33
17 68 33 78 25 16 25 18 -1 19 -27 1 -27 3 0 20 26 17 25 19 -4 20 -27 0 -35
23 -40 115 -5 97 -12 114 -41 109 -43 -7 -46 33 -4 49 62 24 -27 335 -173 605
-99 184 -89 174 -133 140 -32 -25 -33 -25 -8 7 35 44 -6 109 -47 75 -17 -14
-32 -12 -48 8 -19 22 -18 32 0 43 15 10 19 7 10 -8 -9 -14 -3 -18 16 -11 26
10 24 18 -8 53 -32 34 -44 37 -69 16 -35 -29 -43 -1 -10 32 21 21 -158 179
-306 272 -68 43 -75 43 -75 5 0 -16 -10 -30 -22 -30 -14 0 -19 -24 -14 -60 6
-39 0 -60 -15 -60 -14 0 -29 34 -34 75 -5 41 -15 93 -24 115 -12 33 -8 32 24
-8 37 -44 85 -31 56 16 -21 34 -136 65 -124 34 11 -31 -9 -30 -93 5 -31 13
-65 23 -75 23 -11 0 -19 9 -19 20 0 11 10 20 23 20 40 0 5 21 -51 31 -37 7
-52 1 -52 -21 0 -16 -10 -30 -22 -30 -14 0 -18 18 -11 45 10 41 9 42 -15 10
-36 -48 -50 -44 -38 10 11 44 11 45 -22 5 -23 -29 -29 -31 -21 -7 10 28 -6 34
-100 40 -83 5 -109 1 -102 -18 5 -14 -3 -25 -19 -25 -17 0 -24 12 -17 30 9 23
-5 30 -61 30 -61 0 -72 -7 -74 -45 -2 -42 -3 -42 -15 -5 -10 29 -27 38 -67 34z
m204 -124 c0 -8 -31 -14 -70 -13 -78 2 -94 26 -25 38 53 8 95 -3 95 -25z m227
0 c13 0 10 -9 -7 -20 -25 -16 -23 -19 10 -20 33 -1 35 -4 10 -20 -46 -30 -86
-24 -73 10 7 19 0 30 -19 30 -17 0 -24 10 -17 21 7 12 26 17 43 10 16 -6 40
-11 53 -11z m-413 -105 l36 -65 6 65 c4 36 16 65 27 65 13 0 18 -33 14 -80 -7
-72 -4 -80 37 -80 28 0 46 -12 46 -30 0 -46 34 -36 47 15 24 87 15 155 -17
142 -16 -6 -30 -1 -30 11 0 12 35 22 80 22 44 0 80 -9 80 -20 0 -11 -13 -20
-30 -20 -20 0 -30 -20 -30 -60 0 -33 10 -60 22 -60 12 0 17 -13 11 -29 -6 -17
-2 -35 9 -42 11 -7 25 5 31 28 6 22 21 36 34 32 13 -5 41 34 64 86 l41 94 39
-109 c38 -105 43 -109 156 -147 100 -34 115 -45 106 -81 -10 -38 -9 -39 15 -8
28 38 126 -6 101 -45 -6 -10 3 -13 19 -7 42 16 142 -66 142 -117 0 -23 11 -45
25 -50 14 -5 25 2 25 15 0 12 -10 16 -23 8 -14 -9 -18 -5 -9 9 60 96 392 -399
453 -676 22 -98 35 -121 68 -123 34 -2 35 -4 6 -12 -40 -10 -48 -46 -10 -46
18 -1 19 -5 2 -15 -33 -22 -26 -365 8 -365 30 0 34 -52 5 -70 -11 -7 -21 4
-21 24 -1 28 -6 25 -21 -12 -14 -37 -11 -53 17 -74 32 -25 31 -27 -15 -30 -34
-2 -39 -5 -15 -12 43 -11 47 -66 4 -66 -17 0 -27 7 -22 15 5 8 -24 17 -64 19
-73 3 -73 3 -18 -20 l54 -24 -57 -113 c-43 -86 -52 -120 -35 -138 18 -19 15
-22 -11 -13 -43 15 -67 -19 -38 -54 23 -27 10 -52 -26 -52 -12 0 -8 9 8 20 34
22 19 26 -29 8 -26 -10 -27 -18 -8 -42 21 -24 18 -28 -14 -23 -29 5 -39 -4
-39 -36 0 -90 -345 -383 -382 -324 -9 14 -6 18 9 9 14 -8 23 -2 23 16 0 19
-11 26 -29 19 -17 -6 -28 -29 -25 -52 2 -22 -7 -45 -21 -49 -14 -5 -25 5 -25
22 0 18 -8 32 -18 32 -10 0 -13 -20 -7 -43 9 -34 4 -41 -20 -32 -18 7 -42 1
-54 -14 -36 -43 -99 -51 -120 -14 -27 49 -45 16 -22 -44 12 -33 13 -56 0 -63
-10 -7 -20 -1 -21 14 -1 20 -3 20 -11 1 -6 -14 -20 -25 -31 -25 -11 0 -15 14
-8 32 7 20 3 28 -12 23 -16 -5 -23 -38 -19 -90 10 -136 -164 -175 -190 -43 -7
32 -20 52 -31 46 -10 -7 -24 7 -30 30 -19 76 -58 48 -50 -36 9 -87 -42 -136
-117 -112 -56 18 -48 53 9 39 84 -21 119 109 39 140 -17 6 -40 5 -51 -1 -11
-7 -26 -4 -33 6 -7 11 -67 33 -133 50 -66 17 -136 38 -155 46 -28 11 -33 7
-22 -21 9 -24 5 -32 -15 -25 -15 6 -25 25 -22 43 3 18 -4 33 -15 33 -12 0 -21
-9 -21 -20 0 -11 -10 -20 -21 -20 -12 0 -16 17 -10 38 15 45 -40 74 -57 29
-17 -44 -177 47 -162 92 15 49 -192 246 -241 230 -32 -10 -33 -9 -9 9 33 23
10 82 -39 98 -16 6 -21 0 -13 -13 9 -14 3 -18 -12 -12 -42 15 -86 96 -59 105
13 4 23 17 23 28 0 11 -12 16 -26 10 -15 -5 -39 9 -53 32 -19 30 -20 44 -4 50
13 4 23 21 23 38 0 24 -6 26 -28 7 -23 -18 -31 -14 -42 20 -9 27 -5 50 10 59
16 10 11 18 -16 25 -28 7 -43 33 -50 88 -6 42 -16 102 -21 134 -7 43 -3 53 19
45 20 -8 28 6 28 49 0 39 -10 59 -30 59 -23 0 -30 27 -30 120 0 100 -6 120
-35 122 -33 2 -33 3 -1 12 32 8 76 115 76 187 0 16 14 50 31 75 17 24 26 44
20 44 -6 0 15 54 48 119 36 70 52 124 41 131 -35 22 -21 53 17 41 23 -7 48 2
65 22 25 30 24 33 -5 22 -20 -7 -32 -3 -29 11 7 49 37 75 72 64 40 -13 73 20
40 40 -11 7 -15 22 -9 32 8 13 22 12 39 -2 17 -14 31 -15 39 -2 6 10 3 25 -8
31 -10 7 -14 25 -8 42 6 16 19 24 29 18 10 -7 13 -20 7 -30 -22 -37 13 -18
136 74 69 51 155 105 192 121 55 23 62 33 42 57 -15 19 -16 29 -3 29 12 0 27
-9 34 -20 19 -31 56 -23 43 9 -17 46 30 62 60 20 26 -35 27 -34 27 7 0 24 9
44 20 44 11 0 10 20 -4 50 -27 60 -49 64 -66 10 -7 -22 -21 -40 -30 -40 -10 0
-4 41 13 91 37 107 68 106 99 -3 14 -50 35 -81 60 -85 21 -4 45 -18 53 -30 8
-13 15 33 15 102 0 139 22 157 74 60z m757 43 c10 -15 0 -18 -28 -9 -31 10
-43 5 -43 -16 0 -17 18 -36 40 -43 51 -16 54 -102 5 -114 -42 -11 -85 1 -85
24 0 9 18 12 40 6 22 -6 40 -1 40 11 0 12 -18 31 -40 43 -39 21 -54 80 -27
107 21 21 83 15 98 -9z m369 -218 c22 -26 40 -38 40 -28 1 22 140 -135 140
-158 0 -9 9 -11 20 -4 11 7 21 3 23 -9 1 -11 3 -32 5 -46 1 -14 16 -25 32 -25
17 0 30 -13 30 -30 0 -16 14 -30 30 -30 17 0 30 -13 30 -30 0 -16 14 -30 30
-30 17 0 30 -12 30 -26 0 -14 12 -33 28 -42 15 -10 27 -41 27 -70 0 -31 11
-52 28 -52 15 0 28 -13 30 -30 5 -64 8 -72 35 -88 15 -10 27 -41 27 -70 0 -28
10 -52 23 -52 13 0 10 -8 -5 -18 -23 -14 -22 -20 4 -35 23 -13 32 -54 35 -162
2 -91 12 -145 26 -145 12 0 9 -9 -8 -20 -27 -18 -27 -22 0 -40 25 -16 23 -20
-10 -20 -37 -1 -36 -4 10 -40 35 -27 41 -40 20 -41 -21 -2 -22 -5 -5 -12 34
-14 32 -117 -3 -145 -16 -13 -26 -39 -23 -58 3 -19 0 -43 -6 -54 -7 -11 -14
-51 -17 -90 -2 -38 -13 -72 -24 -76 -11 -4 -14 -21 -7 -39 7 -18 4 -26 -8 -19
-12 7 -19 -7 -16 -32 4 -54 -28 -98 -58 -80 -13 8 -11 -1 3 -19 27 -33 -3
-115 -42 -115 -9 0 -11 -9 -4 -20 7 -11 2 -20 -10 -20 -12 0 -17 -9 -10 -20 7
-11 2 -20 -10 -20 -12 0 -17 -9 -10 -20 7 -11 2 -20 -10 -20 -12 0 -17 -9 -10
-20 7 -11 2 -20 -10 -20 -12 0 -18 -8 -12 -17 15 -25 -144 -188 -168 -173 -11
7 -20 0 -20 -15 0 -38 -89 -119 -110 -100 -9 8 -11 5 -4 -7 18 -32 -57 -96
-90 -77 -14 9 -19 8 -11 -1 15 -17 -67 -75 -139 -98 -32 -10 -41 -5 -39 22 2
20 -8 34 -22 31 -14 -3 -25 4 -25 15 0 11 12 20 27 20 15 0 50 18 78 39 27 22
55 34 62 27 7 -7 13 -1 13 14 0 15 5 21 12 15 10 -10 73 51 197 190 17 19 31
49 31 65 0 17 10 30 21 30 12 0 15 -11 7 -25 -8 -15 -7 -18 4 -8 18 16 21 26
26 84 1 17 9 27 18 22 8 -6 45 51 80 126 36 74 83 154 104 176 20 22 33 45 28
50 -14 14 35 115 52 105 7 -4 11 12 9 36 -2 24 2 53 9 64 27 46 15 280 -17
304 -28 22 -28 25 2 25 33 1 43 100 15 151 -6 11 -9 43 -7 70 3 28 -5 56 -16
63 -11 7 -20 36 -20 65 0 28 -8 52 -17 52 -9 0 -12 14 -5 30 6 17 0 30 -13 30
-13 0 -19 13 -13 30 7 17 3 30 -7 30 -10 0 -14 14 -7 30 6 17 1 30 -12 30 -13
0 -18 9 -11 20 7 11 2 20 -10 20 -12 0 -17 8 -11 18 6 11 -3 33 -20 50 -22 22
-24 32 -7 32 31 0 3 30 -29 31 -13 0 -21 12 -18 25 3 14 -8 30 -25 37 -16 6
-30 24 -30 39 0 15 -9 28 -20 28 -11 0 -18 11 -15 24 3 13 -8 25 -25 25 -16 1
-44 28 -61 61 -17 33 -44 63 -60 67 -54 12 -99 75 -72 102 18 18 16 21 -8 12
-17 -7 -48 4 -70 25 -43 39 -109 72 -135 67 -10 -2 -11 5 -4 17 7 11 30 20 51
20 24 0 34 10 27 28 -18 47 87 24 132 -28z m-1631 2 l59 -13 -65 -47 c-37 -27
-81 -42 -104 -36 -43 11 -51 -6 -17 -40 16 -16 12 -21 -15 -19 -21 2 -35 -8
-32 -23 4 -15 -3 -21 -15 -14 -11 7 -20 2 -20 -11 0 -15 -22 -20 -59 -15 -32
5 -55 2 -50 -6 5 -8 -31 -55 -80 -104 -49 -49 -85 -95 -80 -102 5 -6 3 -8 -4
-2 -24 18 -65 -32 -52 -65 8 -21 4 -27 -12 -17 -15 9 -23 0 -23 -27 0 -22 -8
-41 -18 -41 -10 0 -16 -16 -15 -35 2 -19 -7 -33 -19 -31 -14 3 -20 -19 -16
-55 4 -32 -1 -59 -12 -59 -10 0 -13 -15 -6 -33 9 -23 5 -29 -11 -19 -15 9 -23
0 -23 -27 0 -22 -10 -41 -21 -41 -12 0 -16 -9 -10 -19 7 -11 4 -35 -6 -55 -35
-66 -64 -201 -50 -236 7 -20 1 -41 -15 -52 -18 -11 -20 -17 -4 -18 29 0 26
-84 -3 -105 -12 -8 -5 -15 16 -15 30 0 33 -6 15 -28 -18 -22 -18 -31 2 -40 21
-10 21 -14 -1 -24 -23 -11 -23 -16 0 -30 22 -15 22 -21 0 -35 -21 -14 -19 -20
8 -30 29 -12 30 -18 6 -47 -18 -23 -19 -29 -2 -19 18 11 23 -2 17 -46 -4 -33
4 -76 18 -95 21 -28 18 -39 -17 -68 -36 -29 -38 -40 -17 -62 22 -21 24 -20 14
7 -16 40 12 61 50 37 18 -11 27 -45 23 -90 -4 -59 2 -71 31 -66 29 5 35 -7 32
-60 -3 -51 4 -64 30 -60 23 4 32 -6 28 -30 -4 -26 4 -34 30 -30 25 4 34 -5 30
-30 -4 -25 4 -34 29 -30 21 3 37 -7 37 -24 1 -16 13 -28 26 -25 13 3 24 -13
24 -35 0 -22 9 -40 20 -40 39 0 50 -4 75 -24 13 -11 20 -28 15 -36 -14 -22
208 -244 230 -230 9 6 23 2 29 -8 24 -40 -29 -42 -68 -3 -50 50 -70 52 -52 6
10 -26 2 -23 -29 10 -23 25 -51 41 -61 34 -11 -6 -20 5 -21 25 -1 21 -5 26
-11 11 -7 -16 -63 28 -150 115 -77 79 -133 150 -125 163 7 12 1 29 -14 39 -27
16 -30 24 -35 89 -2 18 -18 28 -38 25 -24 -4 -33 5 -29 29 3 19 -3 35 -14 35
-12 0 -16 14 -9 30 7 19 -1 30 -21 30 -18 0 -32 10 -32 22 0 13 -27 53 -59 90
-35 39 -55 81 -48 98 6 16 1 30 -12 30 -13 0 -19 8 -13 17 6 9 -7 63 -29 120
-25 66 -31 103 -16 103 14 0 12 12 -6 34 -23 29 -23 32 5 22 18 -7 31 -2 31
14 0 14 -12 22 -27 16 -27 -11 -26 31 2 95 7 17 11 48 9 70 -11 117 5 370 23
359 11 -7 14 1 8 19 -7 18 -2 31 12 31 20 0 20 6 0 30 -21 25 -18 30 13 30 31
1 32 4 7 20 -20 13 -22 19 -5 20 14 0 25 18 25 40 0 22 9 40 19 40 11 0 14 15
7 33 -9 23 -5 29 11 19 13 -8 23 -2 23 14 0 16 17 34 37 39 24 6 35 26 33 57
-2 27 13 69 33 96 20 26 37 60 37 75 0 15 11 25 24 22 13 -3 25 9 26 25 1 17
13 28 26 25 13 -3 24 5 24 16 0 12 9 16 20 9 11 -7 14 1 7 20 -7 20 -2 30 15
26 14 -3 27 8 28 24 1 17 13 28 26 25 13 -3 24 13 24 36 0 25 11 38 29 35 15
-3 27 0 25 7 -14 48 169 163 226 143 17 -6 57 -17 89 -24z m337 -2734 c-5 -13
1 -30 13 -37 12 -8 21 4 21 28 0 22 9 41 20 41 11 0 20 -45 20 -100 0 -55 -9
-100 -20 -100 -11 0 -20 11 -20 24 0 19 -5 19 -24 0 -13 -13 -36 -24 -51 -24
-22 0 -21 7 4 31 38 39 39 51 2 100 -40 52 -38 67 7 64 21 -2 33 -14 28 -27z
m814 -57 c0 -67 8 -90 35 -97 19 -5 -5 -9 -55 -9 -49 0 -74 4 -55 9 27 7 35
30 35 97 0 49 9 89 20 89 11 0 20 -40 20 -89z m257 49 c8 -26 5 -26 -25 -1
-30 25 -37 25 -53 0 -12 -21 -4 -36 32 -55 27 -14 49 -39 49 -56 0 -22 -17
-17 -70 23 -77 59 -82 69 -45 106 32 32 99 22 112 -17z"/>
<path d="M2304 4159 c-272 -139 -323 -535 -84 -664 78 -42 282 -41 323 0 17
17 -12 20 -117 11 -180 -15 -283 59 -299 215 -33 319 383 421 740 182 l57 -39
128 90 c148 103 156 120 53 110 -53 -5 -116 12 -215 58 -190 88 -453 104 -586
37z"/>
<path d="M2668 3924 c-148 -120 -158 -220 -38 -388 233 -329 248 -526 49 -631
-164 -87 -266 6 -248 226 15 185 -6 215 -170 241 -92 15 -107 -3 -29 -33 45
-17 51 -28 39 -74 -57 -240 -22 -327 162 -397 340 -130 694 270 511 579 -66
112 -11 160 79 70 l44 -44 56 68 c70 83 70 89 2 149 -74 66 -85 63 -165 -39
-86 -110 -72 -113 -185 37 -96 128 -114 185 -71 228 38 38 9 44 -36 8z"/>
<path d="M3465 3647 c-91 -20 -41 -43 71 -33 284 26 490 -282 232 -346 -51
-13 -243 68 -288 122 -26 31 -69 3 -274 -179 -187 -166 -196 -288 -33 -480 86
-100 86 -101 -34 -222 l-101 -103 178 -64 c172 -61 244 -108 244 -159 0 -45
32 -22 182 132 316 324 327 394 96 601 -76 68 -65 103 62 204 295 234 55 612
-335 527z m7 -487 c83 -44 164 -80 180 -80 48 0 32 -28 -90 -148 -136 -134
-139 -134 -288 26 -109 116 -113 137 -42 220 65 78 59 78 240 -18z m171 -477
c104 -104 120 -161 66 -239 -44 -62 -99 -56 -299 37 l-176 82 107 108 c137
138 174 140 302 12z"/>
<path d="M3301 1764 c-1 -15 -17 -24 -36 -21 -19 3 -46 -1 -60 -10 -36 -22 6
-93 55 -93 51 0 88 69 61 115 -12 22 -20 25 -20 9z"/>
</g>
</svg>
